Coordinates
version=1
nRows=14
nColumns=40
inDegrees=yes

Units are S.I. units (second, meters, Newtons, ...)
If the header above contains a line with 'inDegrees', this indicates whether rotational values are in degrees (yes) or radians (no).

endheader
time	pelvis_tilt	pelvis_list	pelvis_rotation	pelvis_tx	pelvis_ty	pelvis_tz	hip_flexion_r	hip_adduction_r	hip_rotation_r	knee_angle_r	knee_angle_r_beta	ankle_angle_r	subtalar_angle_r	mtp_angle_r	hip_flexion_l	hip_adduction_l	hip_rotation_l	knee_angle_l	knee_angle_l_beta	ankle_angle_l	subtalar_angle_l	mtp_angle_l	lumbar_extension	lumbar_bending	lumbar_rotation	arm_flex_r	arm_add_r	arm_rot_r	elbow_flex_r	pro_sup_r	wrist_flex_r	wrist_dev_r	arm_flex_l	arm_add_l	arm_rot_l	elbow_flex_l	pro_sup_l	wrist_flex_l	wrist_dev_l
      0.00500000	     -3.95549850	      4.18598088	     -3.86076858	      0.23863014	      0.89933298	     -1.19548644	      5.33905334	    -25.72175390	    -35.36591649	      7.01031423	      0.12235306	     -7.48493900	     15.05105065	      0.00000000	      3.01525637	    -15.53046521	    -38.84940071	      6.10798941	      0.10660453	     -6.43637065	     17.04044997	      0.00000000	    -13.38795237	     -4.52833153	     -3.15825994	     44.05614085	    -16.38851953	     44.05614085	     75.11722167	     44.93709841	      0.00000000	      0.00000000	     44.05614085	    -16.38851953	     44.05614085	     75.11722167	     44.93709841	      0.00000000	      0.00000000
      0.01000000	     -4.01773911	      4.21640992	     -3.94664177	      0.23858194	      0.89925288	     -1.19530914	      5.46724933	    -25.73471886	    -35.25828008	      7.00879358	      0.12232652	     -7.53507284	     15.03511064	      0.00000000	      3.06927221	    -15.51983427	    -38.90446236	      6.13904792	      0.10714660	     -6.50170192	     16.97556668	      0.00000000	    -13.30290476	     -4.58879766	     -3.04453038	     44.06862034	    -16.36204047	     44.06862034	     75.11367583	     44.94074699	      0.00000000	      0.00000000	     44.06862034	    -16.36204047	     44.06862034	     75.11367583	     44.94074699	      0.00000000	      0.00000000
      0.01500000	     -4.00448723	      4.52546396	     -4.08464518	      0.23867609	      0.89919280	     -1.19510828	      5.63964898	    -26.14205769	    -35.13420616	      7.22956167	      0.12617965	     -7.27871164	     15.18733087	      0.00000000	      2.85634548	    -15.01275084	    -38.81025790	      5.65998356	      0.09878535	     -6.75442127	     16.62585566	      0.00000000	    -13.27076086	     -4.95299816	     -2.93664497	     44.15833519	    -16.18643513	     44.15833519	     75.09299162	     44.95978231	      0.00000000	      0.00000000	     44.15833519	    -16.18643513	     44.15833519	     75.09299162	     44.95978231	      0.00000000	      0.00000000
      0.02000000	     -4.08773035	      4.56643220	     -4.03951994	      0.23866822	      0.89906948	     -1.19520890	      5.66487726	    -26.15734543	    -35.12667776	      7.09913093	      0.12390321	     -7.43862158	     15.20284611	      0.00000000	      3.03903015	    -15.03595625	    -38.88349356	      5.87983508	      0.10262248	     -6.59036194	     16.74432574	      0.00000000	    -13.17409774	     -4.92585278	     -2.83206556	     44.17916019	    -16.14588825	     44.17916019	     75.08830065	     44.96328076	      0.00000000	      0.00000000	     44.17916019	    -16.14588825	     44.17916019	     75.08830065	     44.96328076	      0.00000000	      0.00000000
      0.02500000	     -4.03857415	      4.53085903	     -4.11924783	      0.23871446	      0.89920626	     -1.19514915	      5.66369755	    -26.11821276	    -35.08826112	      7.13780285	      0.12457816	     -7.36492581	     15.12453536	      0.00000000	      2.87302541	    -14.98985196	    -38.81672415	      5.63965058	      0.09843047	     -6.78733007	     16.50143241	      0.00000000	    -13.22783067	     -4.96744229	     -2.92982502	     44.19793922	    -16.10822650	     44.19793922	     75.08370286	     44.96703380	      0.00000000	      0.00000000	     44.19793922	    -16.10822650	     44.19793922	     75.08370286	     44.96703380	      0.00000000	      0.00000000
      0.03000000	     -4.07128637	      4.55287746	     -4.24040777	      0.23871738	      0.89918075	     -1.19492724	      5.74380527	    -26.08399361	    -34.83266445	      7.05071427	      0.12305818	     -7.44374360	     14.93479259	      0.00000000	      2.83252222	    -14.95452202	    -38.86284722	      5.55622199	      0.09697437	     -6.80916742	     16.50123593	      0.00000000	    -13.16365285	     -4.99331709	     -2.80368490	     44.31162568	    -15.91102401	     44.31162568	     75.06455067	     44.97986104	      0.00000000	      0.00000000	     44.31162568	    -15.91102401	     44.31162568	     75.06455067	     44.97986104	      0.00000000	      0.00000000
      0.03500000	     -4.10369000	      4.41685218	     -3.99275654	      0.23885155	      0.89914859	     -1.19539575	      5.54817063	    -25.93488647	    -35.18246645	      6.92044017	      0.12078447	     -7.47516031	     15.02595741	      0.00000000	      3.04273670	    -15.19699902	    -38.83137788	      5.86724845	      0.10240280	     -6.52177340	     16.85806224	      0.00000000	    -13.12712256	     -4.77396736	     -3.02321422	     44.39951637	    -15.76124243	     44.39951637	     75.05090643	     44.98603789	      0.00000000	      0.00000000	     44.39951637	    -15.76124243	     44.39951637	     75.05090643	     44.98603789	      0.00000000	      0.00000000
      0.04000000	     -4.10692983	      4.56643111	     -4.18693861	      0.23885670	      0.89912577	     -1.19505550	      5.75256280	    -26.13155699	    -35.00633525	      7.09527163	      0.12383585	     -7.39331172	     15.13628199	      0.00000000	      2.89765196	    -14.94844251	    -38.83268253	      5.60124105	      0.09776010	     -6.75701637	     16.52179831	      0.00000000	    -13.09261180	     -5.00507917	     -2.88551450	     44.41264361	    -15.73645870	     44.41264361	     75.04816241	     44.98759599	      0.00000000	      0.00000000	     44.41264361	    -15.73645870	     44.41264361	     75.04816241	     44.98759599	      0.00000000	      0.00000000
      0.04500000	     -4.11000249	      4.51343949	     -4.14980575	      0.23890860	      0.89914973	     -1.19515702	      5.71188786	    -26.07450420	    -35.09071488	      7.07170360	      0.12342451	     -7.40856393	     15.19091841	      0.00000000	      2.93257958	    -15.02311657	    -38.81769341	      5.67237487	      0.09900162	     -6.70228846	     16.52210263	      0.00000000	    -13.08507181	     -4.94853596	     -2.96752834	     44.41709357	    -15.72736005	     44.41709357	     75.04703198	     44.98834709	      0.00000000	      0.00000000	     44.41709357	    -15.72736005	     44.41709357	     75.04703198	     44.98834709	      0.00000000	      0.00000000
      0.05000000	     -4.12464287	      4.51055418	     -4.16260339	      0.23896932	      0.89913004	     -1.19513920	      5.71983705	    -26.05582909	    -35.04706548	      7.03977545	      0.12286726	     -7.42874198	     15.13070481	      0.00000000	      2.94956941	    -15.03931543	    -38.84473419	      5.70518703	      0.09957430	     -6.66707173	     16.58118435	      0.00000000	    -13.03943289	     -4.94470064	     -2.95728772	     44.42388628	    -15.71539481	     44.42388628	     75.04583572	     44.98895003	      0.00000000	      0.00000000	     44.42388628	    -15.71539481	     44.42388628	     75.04583572	     44.98895003	      0.00000000	      0.00000000
      0.05500000	     -4.12102963	      4.59566962	     -4.21678573	      0.23902290	      0.89911683	     -1.19503456	      5.78278402	    -26.16759349	    -34.99602744	      7.11143754	      0.12411800	     -7.38703792	     15.15688933	      0.00000000	      2.89819259	    -14.91304647	    -38.83730890	      5.60772052	      0.09787319	     -6.74744250	     16.47685018	      0.00000000	    -13.00798794	     -5.02947843	     -2.85985050	     44.43671553	    -15.69225338	     44.43671553	     75.04343675	     44.99018443	      0.00000000	      0.00000000	     44.43671553	    -15.69225338	     44.43671553	     75.04343675	     44.99018443	      0.00000000	      0.00000000
      0.06000000	     -4.11051435	      4.52477805	     -4.18241085	      0.23907195	      0.89914596	     -1.19508834	      5.70925963	    -26.06641567	    -35.00522761	      7.03706331	      0.12281992	     -7.42139777	     15.09707571	      0.00000000	      2.94763195	    -15.04733175	    -38.87940069	      5.78298460	      0.10093212	     -6.59359628	     16.59560033	      0.00000000	    -13.00630345	     -4.92469282	     -2.85720867	     44.44145999	    -15.68433424	     44.44145999	     75.04271730	     44.99048802	      0.00000000	      0.00000000	     44.44145999	    -15.68433424	     44.44145999	     75.04271730	     44.99048802	      0.00000000	      0.00000000
      0.06500000	     -4.13073301	      4.59532157	     -4.16379953	      0.23910608	      0.89911621	     -1.19513430	      5.73268054	    -26.14418521	    -34.95401582	      7.03819934	      0.12283975	     -7.46102497	     14.99770803	      0.00000000	      2.99654009	    -14.97247751	    -38.88416151	      5.81598646	      0.10150811	     -6.63866825	     16.52358419	      0.00000000	    -12.96288733	     -4.96963676	     -2.82264483	     44.44563792	    -15.67672188	     44.44563792	     75.04192055	     44.99088019	      0.00000000	      0.00000000	     44.44563792	    -15.67672188	     44.44563792	     75.04192055	     44.99088019	      0.00000000	      0.00000000
      0.07000000	     -4.12435632	      4.59480586	     -4.13488462	      0.23921718	      0.89910983	     -1.19517361	      5.69425739	    -26.14648331	    -34.99530289	      7.02405199	      0.12259283	     -7.44386976	     15.03067686	      0.00000000	      2.98644242	    -14.96510423	    -38.85797671	      5.79461535	      0.10113512	     -6.63820018	     16.56346107	      0.00000000	    -12.93600562	     -4.94985157	     -2.83658753	     44.45158679	    -15.66633506	     44.45158679	     75.04090348	     44.99133085	      0.00000000	      0.00000000	     44.45158679	    -15.66633506	     44.45158679	     75.04090348	     44.99133085	      0.00000000	      0.00000000
